<svg width="176" height="177" viewBox="0 0 176 177" fill="none" xmlns="http://www.w3.org/2000/svg">
  <defs>
    <linearGradient id="tm-line" x1="24" y1="20" x2="150" y2="150" gradientUnits="userSpaceOnUse">
      <stop stop-color="#5AA2FF"/>
      <stop offset="0.5" stop-color="#F28A6D"/>
      <stop offset="1" stop-color="#7B53FF"/>
    </linearGradient>
    <linearGradient id="tm-blue" x1="10" y1="44" x2="88" y2="44" gradientUnits="userSpaceOnUse">
      <stop stop-color="#6AA8FF"/>
      <stop offset="1" stop-color="#4B7CFF"/>
    </linearGradient>
    <linearGradient id="tm-coral" x1="86" y1="36" x2="130" y2="62" gradientUnits="userSpaceOnUse">
      <stop stop-color="#F7A17D"/>
      <stop offset="1" stop-color="#E67E64"/>
    </linearGradient>
    <linearGradient id="tm-purple" x1="30" y1="100" x2="150" y2="150" gradientUnits="userSpaceOnUse">
      <stop stop-color="#8F56F8"/>
      <stop offset="1" stop-color="#5E39F2"/>
    </linearGradient>
  </defs>

  <g stroke="url(#tm-line)" stroke-linecap="round" stroke-linejoin="round" stroke-width="6">
    <path d="M24 62L69 30"/>
    <path d="M69 30L95 70"/>
    <path d="M69 30L120 46"/>
    <path d="M24 62L47 106"/>
    <path d="M47 106L95 70"/>
    <path d="M47 106L57 151"/>
    <path d="M47 106L132 120"/>
    <path d="M95 70L120 46"/>
    <path d="M95 70L142 80"/>
    <path d="M95 70L132 120"/>
    <path d="M132 120L57 151"/>
    <path d="M132 120L142 80"/>
  </g>

  <circle cx="24" cy="62" r="12" fill="url(#tm-blue)"/>
  <circle cx="69" cy="30" r="12" fill="url(#tm-blue)"/>
  <circle cx="120" cy="46" r="9" fill="url(#tm-coral)"/>
  <circle cx="95" cy="70" r="12" fill="#DE736B"/>
  <circle cx="47" cy="106" r="15" fill="url(#tm-purple)"/>
  <circle cx="142" cy="80" r="9" fill="#9A54D2"/>
  <circle cx="132" cy="120" r="17" fill="url(#tm-purple)"/>
  <circle cx="57" cy="151" r="11" fill="#8A58F0"/>
</svg>
